/* XPM */
static char *result[] = {
/* columns rows colors chars-per-pixel */
"40 40 211 2 ",
"   c #060606",
".  c #090605",
"X  c #060609",
"o  c #0C0A08",
"O  c #080508",
"+  c #110806",
"@  c #130A0A",
"#  c #1C0D0D",
"$  c #1B0B07",
"%  c #1A110D",
"&  c #13130E",
"*  c #170C10",
"=  c #151611",
"-  c #1B1112",
";  c #151911",
":  c #34150F",
">  c #231314",
",  c #291616",
"<  c #2A1719",
"1  c #221C1B",
"2  c #281A1A",
"3  c #321413",
"4  c #341A17",
"5  c #331D1C",
"6  c #2F201F",
"7  c #291F20",
"8  c #2D2323",
"9  c #3D2322",
"0  c #3B2826",
"q  c #372625",
"w  c #3D3B39",
"e  c #263C26",
"r  c #411D1A",
"t  c #471A15",
"y  c #531D1C",
"u  c #54221D",
"i  c #58211D",
"p  c #6A261E",
"a  c #672119",
"s  c #442523",
"d  c #452B29",
"f  c #582923",
"g  c #5B362A",
"h  c #4E3B3A",
"j  c #433837",
"k  c #553432",
"l  c #5B3935",
"z  c #573C38",
"x  c #6B2622",
"c  c #672A20",
"v  c #732E29",
"b  c #762A28",
"n  c #67342D",
"m  c #763227",
"M  c #76352A",
"N  c #7B352B",
"B  c #633C39",
"V  c #6B3A34",
"C  c #7A3431",
"Z  c #753A32",
"A  c #7B3A33",
"S  c #793B39",
"D  c #32442F",
"F  c #4E4932",
"G  c #594639",
"H  c #64413D",
"J  c #6C413C",
"K  c #7C4237",
"L  c #77433B",
"P  c #7E443B",
"I  c #7B463A",
"U  c #635C3F",
"Y  c #58524F",
"T  c #6A4641",
"R  c #6E4D49",
"E  c #744643",
"W  c #7A4543",
"Q  c #7C4B43",
"!  c #744A48",
"~  c #7D4B49",
"^  c #63534E",
"/  c #7C5045",
"(  c #78524C",
")  c #6C5453",
"_  c #7A5C57",
"`  c #487C52",
"'  c #547450",
"]  c #5A6B4C",
"[  c #646246",
"{  c #686B47",
"}  c #75664D",
"|  c #6B7A56",
" . c #7C7353",
".. c #7E7D5C",
"X. c #787C58",
"o. c #6A6060",
"O. c #787371",
"+. c #802D2D",
"@. c #892E32",
"#. c #823D35",
"$. c #843F3D",
"%. c #8B3237",
"&. c #93383D",
"*. c #83443C",
"=. c #8A453E",
"-. c #824A3F",
";. c #933E41",
":. c #824442",
">. c #834C45",
",. c #8B4C44",
"<. c #834D49",
"1. c #8B4E4A",
"2. c #8B4741",
"3. c #924D46",
"4. c #9B4449",
"5. c #994E49",
"6. c #964245",
"7. c #8D5047",
"8. c #86524B",
"9. c #8C534B",
"0. c #845D4B",
"q. c #8C594F",
"w. c #845446",
"e. c #93544B",
"r. c #9C554F",
"t. c #94594E",
"y. c #98584F",
"u. c #9F4C51",
"i. c #8D5352",
"p. c #8F5A55",
"a. c #845B56",
"s. c #945552",
"d. c #945B53",
"f. c #9B5B52",
"g. c #9C5759",
"h. c #965E59",
"j. c #9D5E5B",
"k. c #985554",
"l. c #A54E53",
"z. c #A25858",
"x. c #86604C",
"c. c #856C52",
"v. c #8B6857",
"b. c #94645C",
"n. c #9B6159",
"m. c #A2625E",
"M. c #A45F61",
"N. c #8B6862",
"B. c #966B65",
"V. c #9D6B65",
"C. c #9E6763",
"Z. c #9F756E",
"A. c #977873",
"S. c #A26965",
"D. c #A36D6A",
"F. c #A56565",
"G. c #AA7372",
"H. c #AB7875",
"J. c #4B8156",
"K. c #528D5E",
"L. c #5D8E5E",
"P. c #588557",
"I. c #6B845B",
"U. c #6A8D5E",
"Y. c #67865A",
"T. c #71855E",
"R. c #728B5E",
"E. c #7F815F",
"W. c #578D61",
"Q. c #4F9D64",
"!. c #519E65",
"~. c #5A9A64",
"^. c #6C8A61",
"/. c #748D61",
"(. c #7B8A61",
"). c #6B9563",
"_. c #629A65",
"`. c #6A9966",
"'. c #649E69",
"]. c #699967",
"[. c #729968",
"{. c #52A167",
"}. c #55A46A",
"|. c #5AA66D",
" X c #57A86C",
".X c #5AA96E",
"XX c #5DA770",
"oX c #5DAC71",
"OX c #5EB174",
"+X c #65A16B",
"@X c #68A26D",
"#X c #61AD75",
"$X c #6BAE75",
"%X c #64AE78",
"&X c #6BA572",
"*X c #72A373",
"=X c #61B276",
"-X c #64B379",
";X c #66BA7C",
":X c #6AB57E",
">X c #818261",
",X c #AD8C83",
"<X c #AE9B94",
"1X c #A8A19D",
"2X c #BCACA6",
"3X c #BAAFAD",
"4X c #C9BEB7",
"5X c #DBD2CD",
"6X c #E3CCC3",
"7X c #E0D3CD",
"8X c #E2E1DD",
/* pixels */
"oX.X XOX X X}. X}.oX}.{.oXQ.!.!.}.{.!.}. X}. X X X.X#X XOX#X.X.X.X=XOXOX.X.XoXoX",
"oX}.{. X}. X XoXoXOXoXOXOX{.!.!.!.~.~._.`.+X+X|.|.}. X X{. X XOXOXOXOX X.X{..X}.",
" X}..X XoX X.XOX}.oX=XXXoX X{.]. .w.,.,.3.=.-.x. .).}.{.{.{. X.X X X XOXoX X.X#X",
"}.}.OX X X.X X.XOXoXoX=X=X@X .>.,.3.5.e.e.e.e.7.7.7.c.`. X.XOX.XoX XoXOXoXoX-X=X",
"{. X XOXOXOX X X=X=X=X#X[.0.=.3.e.e.y.e.e.r.t.e.t.7.e.q.R..X.XOXOXoXOX=X#X=X-X:X",
"}..X XOX XOXOXOXoX-X#X&X0.=.,.3.e.r.y.y.y.y.t.t.t.t.t.q.q.R. XOX.XOXoXOX.X.X#X#X",
" X XoX-X#XoXoX=X-X;X;Xc.*.,.3.r.e.y.y.y.t.d.t.n.t.t.t.t.t.w.[.OXoXOX=XoXoX X=X.X",
" X XoX#X#X#X:X=X=X;X*X-.=.,.e.e.y.r.y.y.t.t.t.t.t.t.t.t.e.e.x.$XOXoX.X|.OXoX.X X",
"oXOXOX=X%X-X%X#X-X%X>X*.,.3.e.r.y.y.f.f.f.d.t.d.t.t.d.e.9.9.9.(.-XOXOXoX=XoX|.}.",
" X XoX-X%X%X-X%X%X&XQ V V 1.r.r.r.z.n.d.T 9 - 5 G w.d.d.s.9.9.0.$XoX=X=X|..X.X}.",
"}..X.X#X%X%X%X%X#X^.,     > 2.r.r.z.n.0         . o k i.i.8.9.8.*X;X-XOXOXoX.XoX",
" X X}.oX#X%X%X%X#XD % 4 4 @ S r.r.f.z.l k T ~ <.<.E d 6 ( 9.9.>./.;X;X;XOX}.|.OX",
" X X}.XX=X%X%X#XW.f S #.#.#.=.6.5.r.f.r.e.e.e.7.e.s.d.! 0 8.8.8...-X;X;X=X.X X X",
" X{.|.oX%X-X%X#X' M N m m #.#.=.5.r.y.e.1.,.2.,.7.e.d.d.~ J 8.8. .;X=X=XoX.X.X X",
"Q.}.}.oXXX#X#X#X] M S K N m N $.5.r.y.t.,.,.9.8.B.V.h.d.p.<.7.8.c.;X=XOXOX X X.X",
"Q.{.{.oXoXXX#XXXY.V ( l a.p.m #.e.m.m.e.,.b._ 0 h 3X2Xb.d.9.8.>.x.R.[.;XoXOX.X.X",
"{.{. XoXoX|.XXoX| z Y 8 h 6Xa.N e.S.f.t.9.A.q 1 A.O.8X<Xd.i.9.>.i.b.~ R.oXoXOXoX",
"!.Q.}.}.|.|.XX|.[ G w 1 0 7X1XM 3.m.t.n.d.A.8 ; w o.5X3Xp.p.8.Q q.8.M ..oX.XoX}.",
"Q.Q.{.}.XXoX#X#X| z 6 6 ^ 6X,XM 7.D.n.n.7.N.) 6 w <X4XA.h.d.9./ 0.d.1.>X.X|.}.{.",
"Q.{.{.oXXXXX%X%X^.V H H v.n.7.A t.V.n.t.e.7.t.8.N.Z.b.h.h.s.9.>.8.h.1.(.}..X{.}.",
"Q.}.|.oXoXXX#X#X..P P >.>.7.-.*.t.t.d.y.e.q.t.t.p.s.d.d.d.i.8.,.8.h.8.`.}. X X{.",
"!.{.oXXXoXoX#XXXX.:.,.1.7.,.*.*.-.q.9.d.t.n.n.n.h.j.j.g.s.9.8.>.p.q.c.|.XX.XoX.X",
"{.}.XXXX}.%XoXXX| ;.1.1.7.P S >.7.8.7.h.S.H.H.G.G.F.M.g.i.1.>./ } ..+X.XoXOX X X",
"}.}.XXoXXXXXoXoX^.C $.:.S $.S s.n.h.j.s.n.Z.S.F.z.z.k.r.8.>.,.} =XOX}.oX.XoX{.}.",
"}.oXXX XXX%XoXXX_.n N m b p a C *.S S <.S.F.j.g.f.s.9.1.>.>.<.I.OXOX.X}. XoXoX.X",
" X XXXXXoXoXXXoX#XU p x i y t t t f B R T ! i.s.e.1.1.9.<.Q Q @X-X-XOX XoXOXoX X",
" XXXoX}.XXoX XXX#XP.c i + @ > > - 2 2 > - * , E 9.9.1.>.>.Q } oXOXOX-XoXoXOX X X",
"}.}.|.XX}.}.}..XoX Xn r @ y S W W i.s.<.k < @ 5 8.9.>.>.>.Q L.OXOX-X%XXXoXXX XoX",
"}.{.!.}.}.}.XX}.oXoX[ 4 3 p b %.6.4.;.;.:.W d @ T 8.w.w.Q F oX=XOXoX%XXXoX%X X X",
"{.{.!.}.}.oXXX X%XoXL.s 3 x +.%.%.;.4.l.s.i.l @ H 9.Q I G ~.OXoXOXXXoX#XXXXXXX}.",
"Q.{.}. X}.oXoXoXoXoX+XF $ y v ;.;.l.z.1.P >.s @ H 8.~ z K.oX=XoX}.XXXX#XoXoXXX!.",
"}.}.}. X.X.XXXoX%X%XoXK.- 3 y x b C C Z W B - o d l 5 J.OX#XoXoXXXoXoXXX#XXX}.}.",
"{.}.}.oXoXOXOXoX=X%X%X=XJ.- > k W ~ ~ T d - @ @ o 3 n _.#XXX|.oXoXoXoX|.XX X!.!.",
"{.oX.XOX XoXoXOX=X-X-X-X%X` & $ # , - - - @ @ # d L L +XoXoXXXoX|.XX|.{.}.|.!. X",
"!.{.}.}..XoX.XoX#X#X#X%X=X=X` ; o @ # & @ * 9 V I >.Q _.|.oX=XXX|.oX|.{.!.}.}.XX",
"Q.}.{.}.}.OXOX XoXoXXX#X%X#XoXK.e   o @ s V Q >.>.8.7.@X|.oXoXXX{..XXXXXoX X}.}.",
"Q.Q.{.Q.{.oX.XoXoXoXoXoXoX|.oXXX| u g V :.>.9.9.i.q.8.).|.|.oXoXXXoX}..X|.{.}.}.",
"Q.!.Q.Q.{. X}.}..XoXoXoXoX#X#XXXY.M Z A >.1.s.d.d.s.9./.XX|.XXXX|.|.|.XX|.}.}.!.",
"Q.Q.Q.Q.{.}.Q.}.{. X.X.XoXoX|.oX~.{ K *.2.8.d.d.v.c.`..X|.|.oX|.|.|.|.=X}.}.!.}.",
"!.Q.Q.Q.{.}..X}.{.}..X|.|.oXoX|.|.|.~.U.U./.`.~.}.!.OX}.oX!.|.|.|.|.|.oX!.{.!.!."
};
