/* XPM */
static char *result[] = {
/* columns rows colors chars-per-pixel */
"40 40 246 2 ",
"   c #737B7F",
".  c #B65A36",
"X  c #B25A49",
"o  c #987E4A",
"O  c #AC7949",
"+  c #B6774D",
"@  c #AC6858",
"#  c #B16553",
"$  c #A97759",
"%  c #B77A57",
"&  c #AC5B70",
"*  c #8F696F",
"=  c #887A6B",
"-  c #977B69",
";  c #896C7A",
":  c #996679",
">  c #877A7B",
",  c #977576",
"<  c #937D7B",
"1  c #A76A67",
"2  c #B86969",
"3  c #A77968",
"4  c #B6776A",
"5  c #A76978",
"6  c #A87878",
"7  c #B87079",
"8  c #C97053",
"9  c #C7785B",
"0  c #CA686A",
"q  c #CD7866",
"w  c #CD7173",
"e  c #75995F",
"r  c #4F9D63",
"t  c #519E65",
"y  c #5A9D66",
"u  c #589979",
"i  c #6B9968",
"p  c #759B63",
"a  c #739B6C",
"s  c #6F8D72",
"d  c #798879",
"f  c #6B9676",
"g  c #789476",
"h  c #52A167",
"j  c #55A46A",
"k  c #57A76B",
"l  c #5AA66D",
"z  c #5AA96E",
"x  c #4FA67E",
"c  c #5CA573",
"v  c #5DAC72",
"b  c #59A67A",
"n  c #5EB174",
"m  c #64A56C",
"M  c #68A66C",
"N  c #77A368",
"B  c #68A575",
"V  c #63AC72",
"C  c #7BA572",
"Z  c #61B276",
"A  c #66B47B",
"S  c #B4853F",
"D  c #CA933D",
"F  c #D8A73D",
"G  c #898C5A",
"H  c #94905A",
"J  c #979759",
"K  c #B7874B",
"L  c #B0934D",
"P  c #A78857",
"I  c #B78759",
"U  c #A89757",
"Y  c #B89659",
"T  c #96A14C",
"R  c #98A45D",
"E  c #A6AA59",
"W  c #B6A856",
"Q  c #888A68",
"!  c #968866",
"~  c #879667",
"^  c #989568",
"/  c #848678",
"(  c #958675",
")  c #879674",
"_  c #979877",
"`  c #AA8665",
"'  c #B78766",
"]  c #AA946A",
"[  c #B69868",
"{  c #A68778",
"}  c #BC8C73",
"|  c #B68878",
" . c #A5997B",
".. c #BD9373",
"X. c #B6987C",
"o. c #85A165",
"O. c #96A76C",
"+. c #B9A56B",
"@. c #A9A577",
"#. c #B7A876",
"$. c #C48648",
"%. c #C89649",
"&. c #D38A58",
"*. c #CD9058",
"=. c #C89759",
"-. c #CBA549",
";. c #D4A949",
":. c #D6B748",
">. c #CBA658",
",. c #D6A859",
"<. c #CDB750",
"1. c #C88866",
"2. c #C79A69",
"3. c #D69368",
"4. c #C69974",
"5. c #C8A96A",
"6. c #CDAE68",
"7. c #C5A576",
"8. c #3F5DAB",
"9. c #4C5D98",
"0. c #774D9C",
"q. c #78599B",
"w. c #517498",
"e. c #776A8C",
"r. c #6D7889",
"t. c #787889",
"y. c #6A6897",
"u. c #796596",
"i. c #697A97",
"p. c #767898",
"a. c #555CA5",
"s. c #6656A6",
"d. c #7955A4",
"f. c #784DBA",
"g. c #5869A6",
"h. c #4E75AC",
"j. c #706AAF",
"k. c #7879A5",
"l. c #6973B8",
"z. c #7875B7",
"x. c #5B5BC8",
"c. c #7D4CC2",
"v. c #665BC6",
"b. c #5167C6",
"n. c #955A8A",
"m. c #875C96",
"M. c #905593",
"N. c #A45390",
"B. c #84678A",
"V. c #966986",
"C. c #877687",
"Z. c #987687",
"A. c #927B8C",
"S. c #896897",
"D. c #966A96",
"F. c #847598",
"G. c #987998",
"H. c #A46B86",
"J. c #A67A86",
"K. c #B47A85",
"L. c #BE6B98",
"P. c #A77A9A",
"I. c #B7789C",
"U. c #874AAE",
"Y. c #9649B4",
"T. c #B858AA",
"R. c #AE53B6",
"E. c #857BA4",
"W. c #9879A8",
"Q. c #946BB4",
"!. c #8679B5",
"~. c #9C74B3",
"^. c #B167A7",
"/. c #A876A5",
"(. c #B676A8",
"). c #A86CB6",
"_. c #AC7AB4",
"`. c #B57AB5",
"'. c #C45A8E",
"]. c #C9788B",
"[. c #CB6795",
"{. c #CB7897",
"}. c #C767A6",
"|. c #CD66B3",
" X c #8358C3",
".X c #9654C5",
"XX c #A757C8",
"oX c #AD53C8",
"OX c #956DC8",
"+X c #AB68C3",
"@X c #C252CE",
"#X c #3B8CB5",
"$X c #4F908D",
"%X c #6D8B8D",
"&X c #798887",
"*X c #54A389",
"=X c #75A79C",
"-X c #5B94AB",
";X c #4E93B0",
":X c #668AAC",
">X c #7787A9",
",X c #7D93AA",
"<X c #7988B2",
"1X c #6594BC",
"2X c #7897B5",
"3X c #4AABB8",
"4X c #78A4AB",
"5X c #3193CB",
"6X c #4E95C9",
"7X c #51A5CD",
"8X c #64A9C6",
"9X c #7EABD2",
"0X c #878A86",
"qX c #85848C",
"wX c #988987",
"eX c #889586",
"rX c #979785",
"tX c #8A8899",
"yX c #958898",
"uX c #87959B",
"iX c #999697",
"pX c #A98986",
"aX c #B48689",
"sX c #A69988",
"dX c #B49786",
"fX c #A68596",
"gX c #B28799",
"hX c #A09590",
"jX c #B89399",
"kX c #93A790",
"lX c #B0A284",
"zX c #8488A5",
"xX c #8796A7",
"cX c #8E94B3",
"vX c #B582A4",
"bX c #A790AB",
"nX c #B686B7",
"mX c #8BABB4",
"MX c #A8ADAE",
"NX c #C98388",
"BX c #C89983",
"VX c #C7999A",
"CX c #D09095",
"ZX c #CCA19C",
"AX c #CE8CA3",
"SX c #C699A2",
/* pixels */
"v z z v z k j M G G s p m i p s d i r e e G J N R M M l n z z v z Z n n k z z n ",
"v j j k j z z c / C.( U P o ; q.; = Q H P P E D E U s f l p l V Z n Z k k j z j ",
"k j v k v k z a < pX+._ K O 1 0.m.D.P.P.2 ' =.;.=.> i.    P G M k z k Z n k z V ",
"j j z z z v l m %XdX+.W O @ B.0.d.H.).^.K.7 2.>.%.A.i.r.X K U E M z z n z z A A ",
"j j z n x *Xi./ { #.+.+.{ H.4 n./.K.jX(.7 I.} 2.G.S.g.u.@ L -.W O.Z V Z Z Z A *X",
"h z k n $X8.t.: ` ' [ { | K.6 J.gXaX_.(.aXgXjXfXW.j.&X&X# D F L J V n Z z M Z v ",
"k z n n $Xa.q.# 6 Y  . ...} K.aXJ.gX/._.jX(.bXjXz.!.>X0X! ' -.Y _ B v v z z n v ",
"z z v b h.g.B.& ` Y ] pX[ | } fX/.dXVXBXVXgXgXgX!.!.zXtXk.| I ` P _ u l Z Z z k ",
"z n V N ^ B.@ 3 >.@.>.>.=.dXfXE.bX_.SXSXVXjXgX~.!.f.>X:Xk.pX6 1 % ( g B n n k k ",
"z x a ) 0XP ' ' ' 1.6.:.#.lXtXW.yXnXZXSXnXOXOX Xl.v.l.E.yXA.Z.# 1 1 &X*Xu v k j ",
"j *XC.t.6 Z.6 } [ pXX.6.:.>.yXaXjXVXnXAX+XOXv.x.x.b.l.<XyXpXH.1 X : u.%X*Xv z n ",
"l i y.B., + } %.} 2.5.lX#.yXdXdX7.BXVXnX`.XXc.x.f.U.Q.W.fXG.J.H.& n.q.t.%Xj k n ",
"k *XB.m.& % K.' [ 4.7.sXtXtXu.6.7.BXCXCXAXL.U.f.Y.Y.N.^.(.~.W.fX| { n.B.g M k z ",
"j i   & & 8 6 1.5.4.<.sXE.yXdX4.,.,.4.NX].].T.R.R.M.Y.Y.).W.~.jX7.| J.u.%Xz z k ",
"t $Xt.: & 2 4 { | 7.7.lXiXhXE.4.4.3.1.1.w CX{.|.'.'.f.Y.XX.X XjX7.} V.1 H m z z ",
"r t y.M.& 0 &.]...>.sX<.#.#.dX4.3.1.3.0 w w [.AXAX^.).oX.XXXXX_.dX| I , ~ ~ z z ",
"y $XS.n.& 8 q aXdX5.<.+.X.hXpX4.1.9 &.q 0 0 [.CXCXVX).@XoXXX@X+XfX4 + + U ~ n z ",
"t i < : N.H.4 $.=.<.<.W wXp.{ 4 1.*.&.q q 0 [.CXCXvX}.@X@XXXOX_.W.4 $.-.L E N j ",
"r i I ' } aX6 J.{ <.<.+.qXqX( $ $.8 8 8 q 9 [.{.gXD.T.@X+XOX!.!.A.6 K ;.-.R y h ",
"r y S =.4.} aXm.H.] <.W @._ _ U $.$.8 &.3.3.{.|.}.N.T.+X`..Xj.E.yX_ %.-.%.L e k ",
"r i U %.>.1.m.d.F.Y E W E W W E L K 8 1.,.4.NX|.'.'.}.(.zXl.z.OXrX_ P $.O U M j ",
"r y U $.1.4 S.s.D.J.@.E @.O.@.) / P % 2.6.NXI.}.}.'.}.vXnXzX<X,X=X_ O . # G M z ",
"h l N 3 5 n.q.q.J.=.+.#.eXrX_ g wX( % q aXJ.].}.[.[.L.gXbXcX2X=X=XO.O X * ~ l k ",
"h z ~ K m.m.m.m.| =.6.#.sXrX@.uX] _ ' V.G././.I.}.& (.nXbXMX2XmX,Xg @ 1 d N j k ",
"l z N ! H.A.| 6 % ;.7.lXk.hXrXrX^ ` ` 6 D.{ P.I.4 K.(.bXmXMXMX2X=XqXC.t.~ V z z ",
"z l e J 1.=.%.$.%.-.#.iXE.i.g.qXwX1 6 tXyXxXmXyXyX/.cX9X9XmX4X8X1X:X> C.M V z z ",
"l l V H K F D 1.I [ uXw.i.h.g.qX< V.d.F.<XxX1XE.k.2X7X6X7X4X9X8X2XwX` ^ ~ V j k ",
"j j l ~ D %.%.;.=.` i.r.i.a.g.i.{ V.q.y.>XuX6Xh.l.7X5X5X7X1X1X6X2XA.! Q M l k v ",
"k h h l P I *.;.*.+.T &X~ r.&XC.> F.q.g.&X-X-X#X3X3X5X5X2X,X,XiX,XtX- t.B V l l ",
"h h t j i - *.,.X.! ( g g qXA.t., e.y.y.&X&X-X;X3X;X7X>X<X2XuXyXxXA.%XB B l z j ",
"r h j l f 0X' ..wX{ wX( / C.e.; *   e.r.d C *X-XxXkXcX .xX8XzXtXwXZ.&Xf V m z h ",
"j j j j x Q $ F.H.5 ( , &Xg * e.; y.9.w.b $X=X] ' O. . .cX,X,X2X1 3 g V v c j h ",
"h l k z n V t.F.D.D.{ P , ` * 3 K -   *Xx c ( ] _ iX@.pXG.zX2XyX3 $ g c b j h h ",
"h z k V k v B eX' I P { , < B.- ! - ~ f *XQ _ wXrX] { D.d.S.F.wX3 Q i y k k h j ",
"t j k h k v v N J K K ` > q.B.V./ P - = f ! 0X{ rX| 3 S.S.S.wX] ! p c j y h j k ",
"r j h j j n n z N ^ I % V.s.q.> K Q G = * = 1 yXiXpX1 D.m.C.= ~ o.l v l v k c j ",
"r r h r h z n z v v N ! e.u.u.C.! J H - * y.y.C.pX_ ` $ > Q B a m k l l l j j j ",
"r r r r h k j j v n z b g r.> d / J H Q - a.r.  a H J J m l m c l l z z l j k t ",
"r r t t h h h k h k z c c a ~ s Q G s u r.w.w.$Xy N i M l l v j l l l Z j k t t ",
"t r r r h k k h h h k k c b c f s s u u r $Xx u u t z k v h l l l l z z y t t t "
};
