/* XPM */
static char *result[] = {
/* columns rows colors chars-per-pixel */
"40 40 38 1 ",
"  c #3D3B3D",
". c #403F40",
"X c #464446",
"o c #474847",
"O c #4A464A",
"+ c #4D4A4D",
"@ c #514E51",
"# c #555255",
"$ c #565956",
"% c #595659",
"& c #5C5A5C",
"* c #615E61",
"= c #456E6B",
"- c #4E726D",
"; c #477573",
": c #497674",
"> c #4B7976",
", c #4C7C7A",
"< c #507772",
"1 c #507E7A",
"2 c #656265",
"3 c #696669",
"4 c #6D6B6D",
"5 c #716E71",
"6 c #757275",
"7 c #787678",
"8 c #4E807E",
"9 c #52817E",
"0 c #4E8684",
"q c #528582",
"w c #5A8683",
"e c #528987",
"r c #598886",
"t c #548C8A",
"y c #5B8F8D",
"u c #57918E",
"i c #58918E",
"p c #5A9391",
/* pixels */
"pq++OOO+++@+@@@@####%%%%%%%%%#@@#@..@.%y",
"p9++@@++O+++O+O++XXXX......   X@%.@#%@@r",
"i,++@X#$$$##$$##@##@@%#@@@+++@OO.%%%%.#y",
"t,++@+$$&&&&&$&%#%%%&@+@@#@+OO@#%22.%..y",
"t>O@#+$&&$&&&&%%%#@O@#%@+OO@#%**375&*..w",
"t1XO@X%&&&&&&%%@O+@&#+OO@@%&&4754773%@.w",
"u9+O#.%$$&&%@OO%$%+OOO@%%@5746777773%..>",
"i9OO@.%&#+O+#&%+OO+O%O@464777777775##@.-",
"pw+O@...+%&%@OO@@#&.%@#577777774374#@..-",
"pq+O%O@&%@OO+##@374%%.%77777*574375###.;",
"uqoO@#+OO@@%%24&574*%.&67477*474377*##.9",
"u8XOOO@#%@@@276&4775&.&67*5734754773@..r",
"u0XO@&%+O*6337536774%.*67*573577777*#@.,",
"u,oO#@#5*5733777777%%+&673677777777.#%.1",
"08oO#O*7*6766777575@%.&777777775*77@@..r",
"0,+O#@276777776&*774%.*777774474%77@##.q",
"e8.@@#47777547637775&.*673474474276@@..y",
"04##@*7756733777777**.%673474477776@##.-",
"0,@.@&4735767776577%*..473477777777@#@.-",
"0,#.#&*76777777%*76%*.#477777775&65@%.@:",
"0,O@@&377775377*476#&.#477775574@%%%@@.2",
"e,@O@*776675*77%*774&@.37457432%%#.@..@1",
"t,O@@&473474*7637774&.@473463....@#%&..<",
"t:@O@%*7*5743777777*&@.56**&.#.*%&@@%@.<",
"t,@O#&&7*5777776577%*..*%.#.%%&%@@*@%..r",
"u:@O#**77777777**77.*@##%..%**43%57&&O.q",
"u,@O#*777775*77%*42%%..@%%*54474%47%%@.r",
"t:@.%2673474*76@@%%@.@@%**574474*67%#.@r",
"y:@O#**7&474%*#%@.@@&.#&73473477777%%@.q",
"0:@O#227&34&%%@..%%.&##47*476777777&#@.w",
"0;OO#**4#*&%@.@%@@*%%..375777775*47&#..q",
"t:OO##@##@.OO%%.@77*%@%477776574&57*%OO8",
"e;.O@@OOO###O*5%&77*%@@376574474&57&@OO,",
"e,@OOO#%%@#&*77%&777%O@473375476777&@@@0",
"0;OO#&%..37327757776&O#373376677777&@O@8",
"0:@O#OO5&6756777777*%O#374577776357&@@#0",
"0;.@#*3746777774477%%O#377777675%473@@%,",
"0=@O#4666776576%*77%%.%477577375%473@O#>",
"0=.@@#%%%%%*&*&%%**%%O#%&&%**%*&#&*%@O#;",
"e=@..@.@OOOOOOOOOOOOOOOOOO@@@@@@@O@OO@%,"
};
