/* XPM */
static char *result[] = {
/* columns rows colors chars-per-pixel */
"40 40 203 2 ",
"   c #060605",
".  c #090605",
"X  c #080807",
"o  c #090509",
"O  c #0D090A",
"+  c #100707",
"@  c #130B0A",
"#  c #1E0D0E",
"$  c #17110E",
"%  c #170C11",
"&  c #1B1212",
"*  c #210D08",
"=  c #230F14",
"-  c #251313",
";  c #2A1515",
":  c #241719",
">  c #211D1B",
",  c #291A18",
"<  c #371413",
"1  c #3B1914",
"2  c #321C1C",
"3  c #3B1D1B",
"4  c #1A2B1A",
"5  c #28221F",
"6  c #39211F",
"7  c #2D2122",
"8  c #352223",
"9  c #3A2826",
"0  c #273122",
"q  c #3D3937",
"w  c #481C18",
"e  c #531E1D",
"r  c #54221D",
"t  c #5A211D",
"y  c #6A241D",
"u  c #472A27",
"i  c #562A26",
"p  c #5B2D28",
"a  c #47362B",
"s  c #4A302E",
"d  c #5D342D",
"f  c #4D2F30",
"g  c #4B3635",
"h  c #533936",
"j  c #563A35",
"k  c #5C3934",
"l  c #6C2621",
"z  c #752D25",
"x  c #722F29",
"c  c #79292B",
"v  c #60342B",
"b  c #76352B",
"n  c #76372B",
"m  c #7B362B",
"M  c #673A34",
"N  c #6A3A36",
"B  c #643D39",
"V  c #7B3432",
"C  c #753C33",
"Z  c #7B3B34",
"A  c #793D3A",
"S  c #59533C",
"D  c #64463A",
"F  c #7C4237",
"G  c #77473D",
"H  c #7D433B",
"J  c #6A563B",
"K  c #3D6B46",
"L  c #554542",
"P  c #585350",
"I  c #6B4440",
"U  c #6D4946",
"Y  c #744442",
"T  c #784843",
"R  c #7D4B43",
"E  c #754C4B",
"W  c #7C4C4A",
"Q  c #685843",
"!  c #7B5149",
"~  c #7F504B",
"^  c #6C5351",
"/  c #705F5A",
"(  c #426E49",
")  c #576346",
"_  c #487D53",
"`  c #6E6D4E",
"'  c #77684D",
"]  c #776B50",
"[  c #6F7152",
"{  c #657A55",
"}  c #7E7355",
"|  c #757A58",
" . c #7D7D5A",
".. c #78706F",
"X. c #832B2E",
"o. c #823D34",
"O. c #8B3438",
"+. c #833F3B",
"@. c #91363B",
"#. c #83453D",
"$. c #8A443E",
"%. c #824A3F",
"&. c #844542",
"*. c #834D45",
"=. c #8B4C44",
"-. c #854D4A",
";. c #8B4E4A",
":. c #944143",
">. c #924D45",
",. c #984349",
"<. c #9B464A",
"1. c #9A4D4B",
"2. c #835245",
"3. c #8D5247",
"4. c #86524B",
"5. c #8C534C",
"6. c #865E4D",
"7. c #8C594F",
"8. c #93544B",
"9. c #9B554E",
"0. c #94594F",
"q. c #98584F",
"w. c #8D5452",
"e. c #8E5A54",
"r. c #935551",
"t. c #9C5552",
"y. c #945B52",
"u. c #9C5B53",
"i. c #9C5759",
"p. c #965E59",
"a. c #9C5D5B",
"s. c #A65358",
"d. c #81634D",
"f. c #816A4E",
"g. c #8C6154",
"h. c #85665F",
"j. c #95645C",
"k. c #9B6159",
"l. c #837255",
"z. c #81775A",
"x. c #A3635F",
"c. c #A45E60",
"v. c #8C6963",
"b. c #976A65",
"n. c #9B6C67",
"m. c #8E736F",
"M. c #9E746C",
"N. c #987771",
"B. c #A16965",
"V. c #A46867",
"C. c #AB7372",
"Z. c #AB7874",
"A. c #4E8657",
"S. c #59865A",
"D. c #6A825A",
"F. c #628F5D",
"G. c #6E8D5E",
"H. c #76845B",
"J. c #75865C",
"K. c #4F9D64",
"L. c #519E65",
"P. c #589964",
"I. c #5C9C65",
"U. c #6D8E62",
"Y. c #758E62",
"T. c #7C8D63",
"R. c #639463",
"E. c #6C9362",
"W. c #649B66",
"Q. c #6D9B6A",
"!. c #739466",
"~. c #739D6E",
"^. c #52A167",
"/. c #5BA167",
"(. c #55A46A",
"). c #5AA66D",
"_. c #57A86C",
"`. c #5AA96E",
"'. c #5DA670",
"]. c #5DAC71",
"[. c #5EB174",
"{. c #63A36C",
"}. c #68A36C",
"|. c #70A06F",
" X c #61AD75",
".X c #6BAE76",
"XX c #64AE78",
"oX c #61B276",
"OX c #64B379",
"+X c #69B37C",
"@X c #66BA7C",
"#X c #A58178",
"$X c #A28F89",
"%X c #AC968E",
"&X c #ACA6A2",
"*X c #BBAAA4",
"=X c #BDB3B1",
"-X c #C8BCB5",
";X c #DDD0C8",
":X c #DAD8D4",
">X c #E6CEC4",
",X c #E8DBD5",
"<X c #E2E1DD",
/* pixels */
"].].`.`.].].OX`.`.`.[.[._.`.`._._._._._._.^.L./.^.^.L.`.(.(.`.).`._._.`.`.`._.[.",
"(.`.(.`.(.oX[.[.[._._.(._._._._.{.W.G.G.G.F.P.^.L.K.^.[.].[.[.`.`.`._._._.(._._.",
"].].(.].[.`.`._.`._.^.^.^./.G.f.2.3.>.3.$.>.%.f.G./.(.].`.oX`._.`.`._.]._.`._._.",
"OXOX].].[.`._.]._.[.[.`.E.g.3.3.8.>.8.8.8.9.8.>.$.f.Q.oXoX X`.oX]._.`._._.`._.(.",
"@X+XOX].[.[.[.[.].]._.J.7.3.0.0.3.0.0.0.0.q.8.>.>.$.2.Y. XOX XoX]._.].].[.`.^.(.",
" X].).].[.[.[._.oX_.J.3.0.8.0.y.0.q.u.0.q.q.9.8.8.=.$.2.}. XOX X].[.[.].[._.`.(.",
"].oX`.`.].[.[.[.OX!.5.5.0.0.0.0.0.u.0.u.q.q.q.8.9.>.=.$.l.+XOXOXoX X].].[.[._._.",
"_.).].[._._.].[..Xd.5.8.7.0.y.0.0.0.0.0.q.q.q.q.q.>.>.$.&.~.OXoX XOXXXOX[.].]._.",
"_.).].[.[.[. X@XH.5.5.8.r.y.y.y.y.7.y.u.u.u.9.9.q.8.>.=.#.z.XXOX XOXOXXXXX[.].`.",
"(.).`.).oXoX]..X6.5.5.w.y.y.-.f ; @ , j u.u.u.s.9.9.;.N v G |.XXXXOXXXXXOX].`._.",
"].`.].].OXoXOX~.4.4.5.7.w.s X . X     X 6 k.u.9.9.=.* o o # { XXXXXXXXXX].'._.(.",
"[.)._.[.@X@X@X!.;.4.5.~ , s W ;.4.-.R k k u.u.9.1.#.# 3 6 : 0 {.XXXXXX X]._._._.",
"`._.`.[.@XOX@X .2.4.4.9 E p.r.8.3.3.8.8.q.u.9.1.:.$.#.o.o.Z p A.XXXXXXXX'._.`._.",
"(.`._.].[.[.@X} -.3.I E y.y.8.4.=.=.=.=.3.q.9.8.$.o.o.m m m b )  XXXXXXX]._.^.`.",
"`._.`.[.@XOX@Xf.-.2.-.e.y.j.n.b.4.8.=.=.3.k.s.8.$.m z m #.F n )  XXX X'.'._.(.K.",
"`.`.[.].@X!.T.' -.3.5.y.j.*X=Xh 9 ^ b.=.3.u.x.9.o.z w.h.h ! Z { '.].'.'.].L.^.K.",
"].].].].Y.R y.e.-.4.w.w.%X<X..T.& 7 N.7.8.y.B.8.m ~ ;XL 7 P L ` '.].).'.]._.^.L.",
"^.]._.]. .C 4.e.*.4.e.p.&X:X..q 5 7 m.j.u.0.B.8.b $X,Xa > q h Q '.].).).(.^.K.K.",
"^._.).].T.=.y.4.~ 4.e.p.N.-X&Xg 8 ^ v.;.k.k.B.8.n #X>X/ 7 7 h [ XX].].'.(.^.L.K.",
"_.^.).(.T.;.j.4.*.3.r.p.a.i.M.b.4.5.3.8.p.k.B.0.Z 3.u.j.D B N J.XXXX].'.].(.L.K.",
"^._._.(.Q.=.u.6.;.;.8.y.y.e.r.e.0.0.0.7.0.0.y.8.#.%.=.3.&.#.H |  X'.'.].'.'._.K.",
"].].].).).l.5.e.*.2.5.r.i.a.a.a.k.k.u.p.0.7.5.;.F #.=.=.;.-.$.|  X X{.].'.].L.L.",
"_._.].].`.}. .' W *.;.w.i.c.V.C.C.Z.Z.B.p.3.5.4.=.C H ;.w.;.+.[ '.]. X_.].'.(.^.",
"^.(.]._.`.^.oXOX] *.*.;.r.t.s.a.k.V.M.B.8.a.p.p.i.A A +.&.#.V D.].].'.'.`.'.].^.",
"].`.[._._.'.].[.D.W *.2.4.8.r.t.i.a.V.V.;.V H H Z y y z z V x R.). X X{.].).].^.",
"_.`.].]._.].[.OX}.G R *.-.;.5.8.r.w.W U E D i e w w t e l l D '. X`. X`.'.].'._.",
"_._.].].[.OX[.[.oX' *.*.-.;.3.5.W 2 % & & > : @ & = + + r y S. X).`.].).).).'.).",
"[._.].].].OX[.OXoXF.G *.*.;.3.4.8 + = f W r.w.Y Y A e @ 6 v I.`.).).(.(._.).(.(.",
"_._.XX X'.XX].].oX XS G ~ -.4.Y @ 6 Y &.:.<.<.,.@.c y 1 1 S ).[.).`.(.).(.^.(.(.",
"L.'.'.'. X].].].[.`.K.k R *.4.D + k r.r.<.,.@.O.X.X.y 1 w S. X[.`.`.`.(.(.^.^.^.",
"L.'.]. X'.].].'. XoX[.A.j W -.I . u &.T =.s.s.<.$.X.t * a {. X`.`.].`.).).^.^.K.",
"^.(.'.].].].'.'.`.`.oX`.A.6 B f + = B R C V V c z t < $ A.{.oX X X`.`._._.(.(.).",
"L.^._.'.'.'. X].].).'.].W.d ; + + @ & f Y W R T d ; @ ( XXXXXXoX].].oX].`._._.^.",
"_.^._.(.L.(.'.].'.'.].].{.G N u @ O @ & & : 2 - # @ ( XXOXOXOXoX X].].`.]._.`.^.",
"_.(.L.).(._.'.(.].XX].).W.*.*.G M 3 + O & % @ @ $ K  XoX X X X[. X`.].`.(.(.(.K.",
"(.'._.'._.'.'.(._.].'.).}.2.3.-.*.T N 3 @ X X 4 _  X XXX X X].`._.oX].(.(.^.^.K.",
"^.(.(.'._.(.'.'. X X).).E.4.5.w.5.-.-.&.M i r { ).].). X].].].].`.oX[.K.K.^.K.K.",
"L.(.(.(.'.'.).'.).'.).`.U.4.r.y.y.8.3.*.F n x { ). X X].'.`.[.`.(.(._.^.K.K.K.K.",
"L.L.'.(.[.'.(.(.(.'.).).).J.l.g.y.y.3.%.H C J P.`.`.].`.`.`.).^.^.^.^.^.K.K.K.K.",
"L.L.L.(.]._._.'.).).L. X(.].(./.E.Y.H.| H.R.{.).). X X).`.`.^.^.^.`._.^.K.K.K.^."
};
