/* XPM */
static char *result[] = {
/* columns rows colors chars-per-pixel */
"40 40 17 1 ",
"  c #4F9D64",
". c #519F65",
"X c #52A167",
"o c #55A46A",
"O c #59A66D",
"+ c #57A86D",
"@ c #59A96E",
"# c #5DA771",
"$ c #5DAC72",
"% c #5EB174",
"& c #61AD75",
"* c #65AF78",
"= c #61B276",
"- c #64B379",
"; c #6AB57E",
": c #65B97B",
"> c #68BB7E",
/* pixels */
"$@@$@+o@o@oo$...o..O@+@oo$%o%%@$@=%$@@$$",
"$oX+++@@$%$$%X.....o@@o@o++oooo%%%%++o@o",
"+o@+%+@$+@=O$oooo o.ooo@Xo+X X@$o@@%$o$%",
"oo$@+@+@=$$==@OOoo@ooXXo@@@@+@%@@+%%$$-=",
"Xo@%%@@@&=*&&.&&$$@oooo@+X++++%@%%@=%*-;",
"o@+%+%%%&-&&&&..oO%@oo$@+@XXoo+%@%$%#@%$",
"+@$-&$%%-;**&&.&oO$o@oOO+o@+@%%%$%%$$O=@",
"@+$&=&-=*****&#&OO=oOooO@@%@@$%:=$OO%$@@",
"@%%%*--&-*;**&#&&#&.+###@@$$$----%%$=$Oo",
"@@$=*****&--*&*#&&&#o#$$@==@=----$==O@@o",
"o@@&********&&&&&#O##&&&%@$&=---::==$$@$",
"o+o$&&**&*&-&&&&&#&#&&&&=$=$&->-::>:=oO%",
"++oO***&&=&O&#&$#&&#$&&-=$==--::=:::=@+@",
"+oO$&**&&&#&&&&&&&*&&$$&$$:%:->==:==$+@+",
" oo$#&&&&&O&&&&&-$#$O$%%%$=%=:==:::%%@@+",
" XX$$&##o&&&&&&&%-$#$%@%%%%:%:%=:=@:@%@@",
"XXo&#O##$@&&&*$&$-$$$X+%+%$%%%%%=%%=@$$$",
"..oOO@#Oo&$$$@$$&%$+++$X@$@%%%%%=@$=$@@o",
"  Xo@#=&**-=$@$$%$$$+$++%%%%%%%%%=$=@@oX",
" .X$@&*&&--=$=$%$+$%@+++o@@%%%$%$$@OOOoo",
" oOO&##&&&--&&$=$$$$$$+ooX@%%+$%$@$Ooo+o",
".X$#O&#&&&&*&---:-&%%$+X@%+%%%%%$$$O@+%@",
"Xo#@O*&O$&&OO-&----$$$$$+@%%%$%%$=@%$$++",
"o@@###@&&&$&&=*--:;--$$$@%%%%%%%=%X$@$oo",
"o#OO&&&O$o&@$*-------=$$+%%%%%:%=%@oO$@@",
"@@O&#&O@@@oO$$*----:-=%$@@@%%>%:==%O$$@O",
"oO@OO&@O&@+@&--;*-=&&&%%%+@%%%%%==&&$$O+",
"oOOOoOo#$@+@@-&--&=&+=@%@%++%%%:%=&&%$+$",
"oooooo@O$@@%$$---&%@+$+%o+%@%+%%$$*#&&OO",
".X.oo#@O=$$&$%-=&=%$$%++%$%$%%$%$#&&&#@o",
" Xo@o&&@$&&-=$=$%%@%++%%$$@$@%%%O#O&&#O.",
"oooo@@o&&&&&#&=%:%%@++%%%$%@$=@@O@&#&Ooo",
"Xoo$==@$=**=&%==%$oo@@@%%%%@$#@&$&@O#OXX",
"X@+&+&%$=**-**-$$OOoX@o+++%@@&@OO@OoooXo",
" ooo+@@@=&&**=#%$$Ooo@@ooo@oO&*#O#OooXoO",
" oooo==@@&&#*&$#$OOOo+ooO@$$@@$OoO#O#oOO",
"  ...@@$$$$%$O##O@$O+oXooO$OOO$&##o@Oo.O",
"    X+oo@$@$$&$$%@OO+Xo+o@O##O#$OO@@Ooo.",
"    XoXoXO@@@###oOXo.XooXOo@OO#oOoO&XoXX",
".   Xo+XoX@@O%$OO#O+o++XoX$o$XOOOOO&o..X"
};
