/* XPM */
static char *result[] = {
/* columns rows colors chars-per-pixel */
"40 40 205 2 ",
"   c #060606",
".  c #0A0607",
"X  c #0E080A",
"o  c #150906",
"O  c #140B0B",
"+  c #1B0C0D",
"@  c #17100D",
"#  c #141710",
"$  c #1B1212",
"%  c #131811",
"&  c #2B130F",
"*  c #3E160F",
"=  c #231413",
"-  c #2A1515",
";  c #241719",
":  c #211E1B",
">  c #2D1B1B",
",  c #3B1914",
"<  c #331C1C",
"1  c #3D1E1B",
"2  c #172015",
"3  c #28211F",
"4  c #31201C",
"5  c #2C2222",
"6  c #342423",
"7  c #3B2523",
"8  c #3C2928",
"9  c #471A16",
"0  c #481F1D",
"q  c #521F1C",
"w  c #54211C",
"e  c #5B201F",
"r  c #672119",
"t  c #6A251E",
"y  c #462927",
"u  c #4B2D2A",
"i  c #522924",
"p  c #552E2B",
"a  c #49302D",
"s  c #56342B",
"d  c #443A39",
"f  c #5A3735",
"g  c #583A37",
"h  c #662923",
"j  c #6C2924",
"k  c #742C25",
"l  c #752D2B",
"z  c #64342A",
"x  c #763026",
"c  c #75342B",
"v  c #7A352B",
"b  c #6A3A34",
"n  c #613C39",
"m  c #7A3633",
"M  c #753B33",
"N  c #7B3B34",
"B  c #7C3D39",
"V  c #2D442B",
"C  c #31412D",
"Z  c #4A432D",
"A  c #48423A",
"S  c #584438",
"D  c #5F5A3E",
"F  c #64423D",
"G  c #69423D",
"H  c #7D4237",
"J  c #77453B",
"K  c #72433C",
"L  c #7C443C",
"P  c #774C3C",
"I  c #63593C",
"U  c #564946",
"Y  c #4F5B40",
"T  c #6B4542",
"R  c #694A46",
"E  c #754543",
"W  c #724844",
"Q  c #7C4A44",
"!  c #7B4748",
"~  c #754949",
"^  c #7E4B49",
"/  c #69564A",
"(  c #7C5044",
")  c #79514C",
"_  c #6E5D58",
"`  c #735552",
"'  c #576949",
"]  c #457D51",
"[  c #6E654C",
"{  c #7B6C4F",
"}  c #65764C",
"|  c #7B6E52",
" . c #6E7452",
".. c #657C53",
"X. c #7C7455",
"o. c #747D56",
"O. c #727F59",
"+. c #7C7D5B",
"@. c #726868",
"#. c #7C7776",
"$. c #8B3237",
"%. c #813C34",
"&. c #863A39",
"*. c #91393C",
"=. c #83443D",
"-. c #8A453F",
";. c #963B41",
":. c #844541",
">. c #834C44",
",. c #8C4C43",
"<. c #854E48",
"1. c #8B4E49",
"2. c #974246",
"3. c #924C45",
"4. c #9A4448",
"5. c #9B4C4B",
"6. c #855246",
"7. c #8C5146",
"8. c #86524B",
"9. c #8C534C",
"0. c #835B48",
"q. c #8B594E",
"w. c #93544B",
"e. c #9C554E",
"r. c #94594F",
"t. c #98584F",
"y. c #8C5451",
"u. c #8F5B55",
"i. c #935552",
"p. c #9B5455",
"a. c #945B53",
"s. c #9C5B53",
"d. c #9C5759",
"f. c #955E59",
"g. c #9D5E5B",
"h. c #A24E53",
"j. c #85644E",
"k. c #886455",
"l. c #95645C",
"z. c #9C615A",
"x. c #827154",
"c. c #83795A",
"v. c #A2625E",
"b. c #A45E60",
"n. c #8C6A64",
"m. c #9B6763",
"M. c #976B66",
"N. c #8E736E",
"B. c #9F756E",
"V. c #997772",
"C. c #A46465",
"Z. c #A26965",
"A. c #A26D6A",
"S. c #AB7372",
"D. c #AB7874",
"F. c #4A8255",
"G. c #568A5B",
"H. c #648659",
"J. c #6B845C",
"K. c #73865C",
"L. c #4F9D64",
"P. c #569764",
"I. c #519E65",
"U. c #5C9B64",
"Y. c #758C61",
"T. c #7C8962",
"R. c #659562",
"E. c #6B9565",
"W. c #629A65",
"Q. c #6C9F6B",
"!. c #729768",
"~. c #729A6A",
"^. c #52A167",
"/. c #55A46A",
"(. c #59A66D",
"). c #57A86C",
"_. c #5AA96E",
"`. c #5DA670",
"'. c #5DAC71",
"]. c #5EB174",
"[. c #63A16A",
"{. c #6CA16E",
"}. c #63A86F",
"|. c #6BA671",
" X c #61AD75",
".X c #69AB74",
"XX c #65AE78",
"oX c #72A772",
"OX c #61B276",
"+X c #64B379",
"@X c #6AB57E",
"#X c #65B97B",
"$X c #A6837A",
"%X c #A18E89",
"&X c #AA928A",
"*X c #BAA49D",
"=X c #ABA5A1",
"-X c #B6A7A1",
";X c #BFB4B1",
":X c #C9BDB6",
">X c #DACCC4",
",X c #DBD8D4",
"<X c #E6CFC5",
"1X c #E7DBD5",
"2X c #E2E1DC",
/* pixels */
"'._._.'._.)./._.)._././._.I.^.^./.I.I.(.).).).).)._.'.).]._._.}._.].].'._.'.'.'.",
"'./.^.).).)._._.'.].'.].].^.L.L.^.I.U.U.[.}._._././.)./.).).).].].].].)._./.'.).",
")./._.).].).).'.)._.OX).'._.W.K.x.0.7.,.-.0.j.K.W._.)./.^.^.)._.)._._.].'./._.].",
"/./.'._.).).).'.].'.'.#X|.X.9.7.3.7.7.7.w.w.w.-.-.K.[.).)._.]._._.).].].'.'.+XOX",
"/./.'.].].).).].OXOXOX!.j.w.w.q.w.w.t.t.w.w.w.3.w.-.j.R.).)._.'.].].'.].].XX#X@X",
"^.).).].).].].]. X+X!.q.w.w.r.r.r.r.r.r.r.e.w.e.w.-.-.j./.).).]._.].'.].'.`.'.'.",
")._.'.+X X'.].].#XoXq.9.w.r.r.a.r.a.a.s.t.t.t.w.w.-.-.-.K.].'.].'.].].'.'.).]._.",
"_.).'. X XOX+X X.Xj.q.w.q.a.r.r.r.r.r.r.t.t.t.t.e.e.-.-.-.{.].#X].'.(.`.'.'._.`.",
"_.].].].XX+XXX XT.8.i.w.w.a.a.i.r.r.z.s.s.s.s.e.t.w.3.-.-.K.@X+X+X].].'.].'.)./.",
"_._.'.OXXX+X+X.Xk.8.9.9.a.a.8.T y 4 y W v.s.s.e.e.e.9.P b ( {.@X#X'.XX].(.'.(.).",
"/._._. XXXXX+X~.8.8.8.9.i.n + .     .   0 z.s.e.e.w.4 .   - J.+X@X#X].].'.'.'.'.",
").)./.'. XXXXXY.8.9.9.8.8 6 G ! Q W G a u s.s.5.-.-.o & - @ C .X#X#X#X#X].(.).'.",
").).).`.XXXX+X+.8.8.8.y R u.i.w.9.w.w.w.t.s.e.5.3.-.N %.%.M i P.#X#X+X#X].'.).).",
").^.(.'. XXX+XX.6.1.T W a.a.w.>.,.,.,.7.w.r.e.w.3.&.%.v v v c ' ].#X#X].'._.).).",
"I././.'.`.`. Xx.<.8.^ u.a.a.m.m.u.7.,.7.w.r.e.5.-.v x v H N v ' +X#X#X]._._._._.",
"L.I.^.'. X!.T.) >.9.9.a.l.*X;XU 8 ` l.-.w.z.v.w.%.k 9.k.f ) J J.#X].].].].]._._.",
"I.I.).'.Y.>.l.q.>.8.9.u.&X2X#.#.3 6 V.q.w.s.Z.w.v Q >XU 5 U S  .OX].].].'.'.'.'.",
"I.L././.X.M >.u.6.8.a.u.-X,X@.A % 5 N.l.a.r.Z.w.c %X1Xa 2 U A / ].'.'.+X'._.'./.",
"L.I.^./.T.>.a.8.( 9.a.f.B.:X=Xd 6 / n.,.s.z.Z.w.c $X<X_ 3 : g  .'.].'.].'.)./.I.",
"L.I./.'.T.<.l.8.>.9.i.f.f.f.B.M.8.9.w.w.l.z.Z.i.H 7.s.l.G T b O.'.'.'.(./.`.^.).",
"I.).(.`.Q.9.a.y.>.1.y.i.a.u.u.w.w.r.w.w.q.r.a.r.=.>.,.>.>.L L O.'.'.'.(./.).)./.",
"I.I.'.`.`.x.8.a.>.8.9.i.d.g.g.l.z.l.g.a.a.r.9.>.H =.,.7.1.,.:.o.].'.'.(._._.'._.",
"^./.`.'.(.|.+.{ ( >.1.i.d.b.C.S.S.D.D.Z.l.9.9.1.>.N L 1.w.1.&. .].]._.'.'.].).).",
"/.).`.`.`.`.'.'.| >.>.1.5.p.d.g.C.m.A.Z.w.g.a.f.i.B &.B :.=.m J.].].^._._.'.^./.",
").`.`./.`.'.XX`.J.>.>.Q 9.9.w.p.d.g.C.m.1.m L =.N r t k k l l W.+X'._.(.).'._.'.",
").).'.`.'. X(.'.U.Q ^ >.>.1.9.w.y.y.~ F R g i 9 * 9 0 q j t I #X+X].].(.'.'._._.",
").`.`./.`.`.(.`. X[ >.Q >.1.1.9.E ; + $ ; > > $ ; = o o q h H.].OXOXXX X'.'.(.).",
"/./.).`.).).^.'.'.G.P ( >.9.9.8.< X > f <.i.i.^ ^ B e + 1 z  XOX].].+X`.].`.).'.",
")./.I.(./.^.'.).'._.Y Q Q 6.8.W O y ! :.;.2.2.2.$.k r , , D '.OX'.].XX`.].'.).(.",
"I.^.I././.`.`.(. X'.U.S Q >.8.G o f y.i.h.h.;.$.$.$.t * 0 G._.].].`.'. X`.`.`./.",
"L.I./././.'.'.'.'. X X(.A Q 8.T O 1 ! L =.h.h.4.*.k w + Z _.OX'./.`.`. X X`.`.I.",
"/././.).).'.).'. X X}.OXG.- u 7 X + f ! K m l j j q & % G.OX'.'.`.'.'.`.].`.).^.",
"I.).).'.'.OX'.'.+XXX+XXXQ.b 1 X X O O 7 g ~ ! W p = # F. X_._.}.'.'.'.(.`.(.I.^.",
"^.'.).'.(.'.].'. X+XXX+X|.P K s & X O $ $ $ = + + # F._.'.'._._.`.`./././.).I.(.",
"L././.^.).'.'.'.OX X XXX|.>.>.L K u $ X @ O O . % ] _./.(. X+X`./.'./././.I./.`.",
"L./.^./.).'.].).(. X'. X{.8.8.8.>.>.L p - X . V P._.'.'.(.`.'.(./.(.`.`.`.).)./.",
"L.L.I.L.I.'.'.'.'.'.'. XE.8.i.y.r.9.9.:.M z h ../.(. X(.(./. X`.}.`./.(.(./././.",
"L.L.L.L.^.)././.'.'._._.E.9.i.a.i.w.9.=.H M c ../._.(._.`._.`. X/.`.`.`.).^.(.I.",
"L.I.L.I.^.^.^./.^.)._._.'.{.Y.c.k.a.9.>.L P } ^.^._./._.(._.`./.`./.`.]././.I.I.",
"I.L.L.L.^.).).^./.^._.)._.'.'.`.(.[.E.R.R.(.).^./.^.'./.'.I.(.(./.`.).'./.I.I.I."
};
