/* XPM */
static char *result[] = {
/* columns rows colors chars-per-pixel */
"40 40 121 2 ",
"   c #6F4A2E",
".  c #764823",
"X  c #784B27",
"o  c #744C2D",
"O  c #7A4E2B",
"+  c #7D512E",
"@  c #6E4E35",
"#  c #6B4F38",
"$  c #734E32",
"%  c #784F30",
"&  c #6F5037",
"*  c #6E5139",
"=  c #6D5A3B",
"-  c #755135",
";  c #7C5434",
":  c #765936",
">  c #73543B",
",  c #7B5639",
"<  c #745B3A",
"1  c #7C593C",
"2  c #735741",
"3  c #755A43",
"4  c #7C5B43",
"5  c #775D49",
"6  c #7A5E49",
"7  c #666B43",
"8  c #746342",
"9  c #7E614B",
"0  c #7F684D",
"q  c #63754C",
"w  c #6E754C",
"e  c #647A4F",
"r  c #6F784E",
"t  c #637F54",
"y  c #6C7E52",
"u  c #747F54",
"i  c #815634",
"p  c #835837",
"a  c #825A3B",
"s  c #825E42",
"d  c #846146",
"f  c #896346",
"g  c #83644C",
"h  c #89664B",
"j  c #82684E",
"k  c #8D694E",
"l  c #856953",
"z  c #8B6B53",
"x  c #8C6F58",
"c  c #916E54",
"v  c #847454",
"b  c #847A57",
"n  c #877359",
"m  c #8E725B",
"M  c #8A795C",
"N  c #927057",
"B  c #92745C",
"V  c #98765D",
"C  c #907A5F",
"Z  c #937761",
"A  c #957962",
"S  c #9A7C64",
"D  c #9C7F68",
"F  c #5D8555",
"G  c #5D8C5A",
"H  c #57925E",
"J  c #5C935E",
"K  c #638355",
"L  c #6B8355",
"P  c #618856",
"I  c #638558",
"U  c #6A835A",
"Y  c #628B5B",
"T  c #6A8D5C",
"R  c #718156",
"E  c #728B5E",
"W  c #63915F",
"Q  c #4F9D63",
"!  c #559761",
"~  c #5C9561",
"^  c #539D65",
"/  c #5B9B65",
"(  c #579F68",
")  c #5C9F68",
"_  c #6C8F61",
"`  c #798F65",
"'  c #639362",
"]  c #6B9565",
"[  c #639B65",
"{  c #6A9A65",
"}  c #659E68",
"|  c #6D9A69",
" . c #739163",
".. c #779468",
"X. c #7A976B",
"o. c #719B6A",
"O. c #79996A",
"+. c #7F9E70",
"@. c #53A067",
"#. c #58A067",
"$. c #55A46A",
"%. c #5AA56C",
"&. c #57A86C",
"*. c #5AA96E",
"=. c #5CAC71",
"-. c #62A36C",
";. c #6CA16D",
":. c #61A96F",
">. c #72A16F",
",. c #6BA670",
"<. c #62AC73",
"1. c #6AAD75",
"2. c #67B379",
"3. c #69B37C",
"4. c #8C8E6A",
"5. c #9E816A",
"6. c #81986D",
"7. c #879E72",
"8. c #A2856E",
"9. c #A38770",
"0. c #A58871",
/* pixels */
"=.*.=.,.%.( ( %.%.%.' ' =.^ Q ! ( ! J #.( ~ / ~ / =.=.&.<.<.<.=.%.1.:.<.*.*.=.=.",
"=.$./ X. .' ~ I Y `  .E { H G G F e e w K t I Y I Y G G _ X.] [ { o.>.[ %.@.=.&.",
"&./ b D x 1 $ @ > s h s 1 o   o o % ; ; $ $   $ $ - = 8 l n M 9 8 B A v R %.=.=.",
"( ' x 8.Z 2 - - 2 l m c z ; o o + ; - - % > % , $ - - > 4 m S 9 9 S 8.S h ] 2.<.",
"! I x 9.Z 6 2 - > 2 s k k , 3 , ; : , ; 1 > 1 % , , 4 % 1 9 A l g A 8.9.D ..3.3.",
"! U m D x 3 2 2 > - a a a 4 4 4 3 1 1 1 3 1 > , , > 3 > > j Z z l g B S D ` ,.<.",
"/ U l l 3 2 3 6 > , % , % 4 6 6 s h h s , 1 2 , > > 3 > * 6 l A Z B z d Z E -.*.",
"~ I * 3 3 6 x x l 1 , i i 3 6 s d c m l s ; % > - - - > > g M Z 9.S 1 4 3 E %.*.",
") ' * * 4 9 m S l 1 p p ; p a 3 s f V D s 4 - - % , % > > z B Z 0.5.9 - o U #.$.",
"=.Y = - > 6 Z Z l a a i i s 1 p p a k D f i i ; % , $ % , N A l S B 1 ; a r [ %.",
"$.I = $ - < B B g p p i 1 4 6 4 p i s c s p , i % % ; i p c c l z s 1 1 a R %.=.",
"&.I = > > g m 4 1 i i i s s s s % i ; , s 4 1 ; i , 4 1 s h k s 1 1 1 h N b %.<.",
"%.Y 3 < 3 1 , , 1 1 ; i a g a 6 , % % % 4 4 3 a % , 4 s s s p a p 1 , k V b #.*.",
"&.G 3 4 6 4 1 , 1 s p i 1 6 4 1 , 4 4 i 4 2 3 1 i % 1 s 4 s 1 , 1 a s z S v -.$.",
"Q Y < 3 4 6 1 1 1 a a 1 a h s 1 ; 4 6 4 3 4 4 ; % % i , 4 a p p p a 1 j m j %.&.",
"Q G : 1 6 4 4 1 1 p a ; s S B s p , a i 1 1 a i O i % X i i p p a 1 a g l 1 -.*.",
"Q G > > 3 6 4 , a p p p s S m s , , , ; , p % O O i X X % i O p ; i ; 1 1 , -.=.",
"Q G 1 1 , 1 1 1 a p p f N V B s % ; ; , , , i i i i O . O O % i ; 1 , ; ; % %.$.",
"Q J 3 1 > 1 1 , i p p V S S k , % % ; 1 4 i p p i i i % s % p - ; 1 1 a 1 % W @.",
"Q G 1 s 3 1 , a a s k V D c % % % % ; 4 a a p p i i i s x l s - , ; i s z k E } ",
"Q J , 1 4 4 p , p s h Z N s i X % % ; p 1 s s i s s g g x D l s ; 1 1 p h B 4.~ ",
"^ Y - , 1 p 1 p a s h S V a i i ; i i ; , 1 s p s s 9 l l D Z s , ; ; ; a f O.:.",
"$.Y ; : , , s s a p k N a p i i p 1 ; i ; s 6 6 4 a 9 9 s B Z 3 4 1 , ; % s o.:.",
"$.T ; - , 4 s l s a k c c s i p 1 1 i i i i s 4 s i s g l h s > s 4 1 - , D 6.;.",
"$.T ; - - 1 x B s 4 s c V c p p , a a i i i % s , i p s 6 4 - 4 d x l g s Z 7.,.",
"%.L ; - , 1 B A l s % i a a i i % a i i % % i i i p i , 4 , $   > l Z z s B +.;.",
"%.L ; > - , x B l , i O i i i i O i % % i i i ; a a p % ; ;     @ , 4 s z A o.:.",
"%.y % $ > 1 l z 1 , ; O i i i . i O i % % % i s z h s i % %   % $ 1 1 3 d 4 &.=.",
"$.Y % % - 2 4 3 - , % i i X . O i i % % ; % i s D c a % % O $ % , ; , 1 - , ) $.",
"^ P > > % > 1 > , , i i X O o , i % % , % $ s x A z s i % o %   - , , ; , > } ( ",
"Q I % # # 2 2 4 > , i i i O , 6 4 > - - @ @ 2 l S m 4 - - & & , $ 4 4 a % 1 -.( ",
"$.Y $ # > * 3 3 6 2 , , i $ > 6 6 3 # - # # 2 x Z 9 2 > & - & # > g l g 4 1 ( $.",
"@.Y @ > * * > 5 9 5 1 > ; > - 2 5 2 > * # # # 2 * 2 # # & & 2 2 s g Z S n 0 ) ( ",
"@.Y @ & * * * > 5 5 2 ; ; % - - > > * * # # # # # # * * * & 2 2 3 g Z D D C _ $.",
"^ G   @ * * * - * 2 > 1 , ; - > > - > * * 2 # # # * * * > & 2 2 5 l Z D D C ] %.",
"Q G @ > 2 * - > * > : ; % > > 2 > - & * 2 2 2 # # # # 2 2 * # * 2 s S Z A C | $.",
"Q G & & = > > > - # % ; $ ; > 2 > > - * 2 3 3 2 * # # > > 2 &   @ s D Z D ` ( $.",
"Q ! 7 = > > > $ # - % % > O $ > > : $ @ # > 3 > # * > # * - @     3 B u u ~ @.@.",
"Q Q H H F F F K q t U y w y u y y U I P F I I t e y t I ' G ' G _ ] | ,.) *.@.@.",
"Q Q @.Q @.#.&.@.^ ( &.&.%.=.=.%.%.%.%.$.$.$.&.^ @.^ %.&.=.^ ) %.%.%.%.=.( ( ^ @."
};
